<?xml version="1.0" encoding="utf-8"?>
<!-- Generator: Adobe Illustrator 29.4.0, SVG Export Plug-In . SVG Version: 9.03 Build 0)  -->
<svg version="1.0" id="katman_1" xmlns="http://www.w3.org/2000/svg" xmlns:xlink="http://www.w3.org/1999/xlink" x="0px" y="0px"
	 viewBox="0 0 600 450" style="enable-background:new 0 0 600 450;" xml:space="preserve">
<g>
	<g>
		<g>
			<g id="BUM4l2.tif_13_">
				<g>
					<path d="M546.9,188.4c-4.3,6.6-11,10-17.8,12.9c-8.9,3.8-17.9,7.2-26.9,10.7c-1.8,0.7-2.7,1.6-3,3.6c-2,14.5-4.4,29-6.3,43.6
						c-0.4,3.6,0.6,7.3,0.6,11c0,3-0.5,6.1-1.4,9c-0.7,2.5-3,2.4-4.1,0.5c-1.3-2.3-2.4-5-2.6-7.6c-0.8-10.7,1.4-21.3,2.7-31.8
						c1-7.6,2-15.2,3-23.3c-3.1,0.5-5.7,1-8.4,1.4c-0.2-0.3-0.4-0.6-0.7-0.9c2.9-2.9,6-5.7,8.8-8.7c1.1-1.2,2.2-2.6,2.6-4.1
						c0.9-3.1,1.1-6.5,1.9-9.7c0.7-2.5,1.9-5,3.4-7.3c4.1,4.5,1.2,9.8,2.5,14.6c0.9,0,1.8,0.1,2.6,0c9.9-1.9,19.5-5.1,28.4-9.9
						c1.9-1,3.6-2.3,5.1-3.9c3.4-3.4,2.9-6.8-1.4-8.9c-3-1.4-6.3-2.4-9.6-3.1c-13.2-2.7-26.4-3.2-39.6,0.2
						c-5.1,1.3-10.5,1.7-15.8,2.4c-1,0.1-2.1,0-3.2,0c-0.1-0.3-0.3-0.7-0.4-1.1c2.5-1.5,4.9-3.3,7.6-4.6c7.3-3.3,15.2-4.1,23.1-4.6
						c11.8-0.8,23.6-0.1,35.1,3.3c5.9,1.8,11,4.6,13.6,10.5C546.9,184.7,546.9,186.5,546.9,188.4z"/>
					<path d="M296,188.8c6.7-0.8,7-0.5,10.5,9.1c1.5-1.2,2.9-2.6,4.5-3.6c9.5-6.5,20.2-10.1,31.4-11.8c5.3-0.8,10.5,0.1,15,3.3
						c4.5,3.1,5.4,6.4,2.1,10.7c-2.7,3.6-5.9,6.9-9.3,9.8c-4.9,4.2-10.2,7.9-15.8,12.1c1.5,1.7,3.2,3.7,5,5.6
						c7.4,7.9,15.1,15.6,22.3,23.8c3.5,4,6.1,9,9,13.5c1.4,2.1,0.7,3.8-1.9,5.3c-12.7-14.4-25.5-28.9-38.3-43.4
						c-0.3,0.1-0.6,0.2-0.9,0.3c-0.6,10.6-1.2,21.1-1.8,32.1c-3-1.5-3.9-4-4.2-6.4c-0.5-4.7-1.2-9.4-0.8-14.1
						c0.9-12.7,2.3-25.3,3.5-38c0.1-1.2,0.5-2.3,0.8-3.9c7.4,4.8,3.2,11.8,4.3,17.6c0.2,0,0.5,0.2,0.6,0.2
						c8.2-4.7,16.1-9.9,21.8-17.8c1.7-2.3,1.2-3.6-1.5-4c-14.6-2.1-28,0.8-39.5,10.5c-3.9,3.3-6,7.2-6.3,12.7
						c-0.5,11.7-2.7,23.3-6.8,34.3c-1.2,3.2-2.9,6.4-5,9.1c-4.7,6.1-11.9,6-16.1-0.5c-2.7-4.3-4.7-9.3-6.2-14.3
						c-4.4-14.1-4.4-28.5-2.4-43c0.1-1,1.6-2.3,2.7-2.6c0.9-0.2,2.7,0.7,3.1,1.6c0.8,1.8,1.2,3.9,1.2,5.9c0,4.9-0.4,9.9-0.6,14.7
						c-0.7,11.6,2.6,22.4,6.7,32.9c0.5,1.5,2.8,3.2,4.2,3.2c1.6,0,4.1-1.6,4.6-3.2c2.1-5.7,4-11.6,5.4-17.6
						c2.5-10.7,3.8-21.4,2.1-32.4c-0.3-2.1-1.3-4.1-1.9-6.1C296.8,192.6,296.4,190.8,296,188.8z"/>
					<path d="M387.9,217.1c-2.9,0.5-5.5,1-8.1,1.4c-0.2-0.3-0.5-0.6-0.7-0.9c2.7-2.7,5.3-5.8,8.3-8.2c1.9-1.5,2.9-3.2,3.3-5.6
						c0.5-3.2,1-6.5,1.9-9.7c0.6-2.2,1.8-4.3,2.8-6.5c0.4,0,0.8,0,1.2,0c0.5,1.4,1.2,2.8,1.6,4.3c0.2,1,0.1,2.2,0,3.4
						c-0.7,7.9-0.6,8.3,6.9,6c7.7-2.3,15.3-5.2,22.8-8.2c2.5-1,4.8-2.9,6.7-4.8c3.3-3.3,2.9-7-1.5-8.5c-5.9-2.1-12.2-3.3-18.4-4.6
						c-11.1-2.2-22-0.4-32.9,2c-5.6,1.2-11.3,1.7-16.9,2.5c-0.2-0.4-0.3-0.9-0.5-1.4c2.1-1.4,4.1-3.4,6.4-4.1
						c5.7-1.8,11.6-3.6,17.5-4.5c13.4-1.9,26.8-1.6,40,2c3.4,0.9,6.8,2.3,9.9,4.2c7.3,4.6,7.8,12.6,0.8,17.7
						c-4.5,3.3-9.6,6-14.7,8.3c-8.3,3.6-16.7,6.8-25.1,10c-1.9,0.7-2.7,1.8-3,3.7c-2,14-4.2,28-6.1,42c-0.4,3.3,0.3,6.7,0.2,10.1
						c-0.1,3.7-0.2,7.6-1.1,11.1c-0.7,2.8-2.9,3-4.4,0.5c-1.3-2.3-2.4-5.4-2.3-8.1c0.7-11,1.8-21.9,2.9-32.8
						c0.6-6.1,1.6-12.2,2.4-18.3C387.7,219.4,387.8,218.4,387.9,217.1z"/>
					<path d="M112.3,174.8c-13.5-2.5-21.7,5.1-28.2,14.9c-11.8,17.8-18.8,37.5-22,58.5c-0.4,3.1-0.2,6.4,0.2,9.5
						c1.9,14.2,10.9,21.4,25,19.2c7.5-1.1,14.9-3.6,22.2-5.8c7.1-2.2,14-4.9,21.1-7.5c0.2,0.3,0.5,0.7,0.7,1.1c-2.3,2-4.4,4.3-7,5.9
						c-8.7,5.6-18.3,9.4-28.4,11.2c-6,1.1-12.3,1.4-18.3,0.7c-12.9-1.6-20.5-10-22.4-23c-1.3-9,0.1-17.6,2.4-26.1
						c3.8-14.2,8.2-28.2,15.5-41c4.6-8,10-15.3,18.3-19.8c5.4-3,11.2-4.6,17.4-2.4C111.2,170.9,112.3,172.2,112.3,174.8z"/>
					<path d="M175.5,264c6.7-1.1,12.9-2.2,19.1-3.1c7.5-1,15-1.9,22.6-2.8c2.9-0.3,4.1,1,4.3,3.9c-7.7,1.4-15.3,2.9-23,4.3
						c-7.9,1.5-15.8,2.8-23.5,4.7c-7.3,1.8-9-3.2-8.4-8.2c1.5-12.4,3.2-24.8,4.8-37.2c2.1-16.1,4.1-32.1,6.2-48.2
						c0.2-1.9,0.4-3.5,3.1-3.5c2.4,0,3.5,1,3.4,3.2c-0.2,5.9-0.4,11.8-1,17.7c-2.4,21.9-5,43.8-7.6,65.7
						C175.4,261.5,175.5,262.4,175.5,264z"/>
					<path d="M234.1,195.1c-2.4,0-4.2,0-6.2,0c5.7-7.7,18-10,23.9-0.7c4.1,6.3,6.1,13.3,6,20.7c-0.1,10.6-2.7,20.8-7.5,30.2
						c-1.7,3.3-4.4,6.5-7.5,8.8c-6.8,5-14.6,2.9-18.1-4.8c-5.1-11.2-6.3-22.8-1.8-34.7C225.5,207.7,228.6,201.1,234.1,195.1z
						 M252,212.9c-1.9-5.1,0.8-13.3-8.5-15.3c-1.4-0.3-3.4-0.3-4.4,0.5c-1.9,1.6-3.6,3.7-4.7,5.9c-3.9,7.5-6.1,15.6-7.5,23.9
						c-1,6.4,0.1,12.4,2.6,18.3c2.2,5.2,6.5,6.3,10.8,2.7c1.6-1.3,3-3.1,3.9-5C248.8,234.4,251.1,224.2,252,212.9z"/>
					<path d="M450.1,195c-2.3,0-4,0-5.9,0c5.4-7.5,17.6-9.8,23.4-1.1c4.8,7.1,6.8,14.9,6.3,23.3c-0.5,9.8-2.9,19.3-7.4,28
						c-1.5,3-3.8,5.9-6.4,8.1c-7.2,5.9-15.7,4-19.5-4.6c-4.5-10.2-5.9-20.9-2.3-31.8c2.4-7.5,5.5-14.5,10.9-20.5
						C449.4,196.2,449.6,195.9,450.1,195z M468.2,212.7c-1.9-5,0.8-13.3-8.6-15.2c-1.4-0.3-3.4-0.2-4.4,0.6
						c-1.9,1.7-3.9,3.9-4.8,6.2c-2.7,7.8-5.2,15.7-7.2,23.7c-1.5,6.2,0,12.2,2.4,18c2.3,5.6,7.1,6.6,11.5,2.4
						c1.5-1.4,2.8-3.3,3.7-5.2C465.1,233.8,467.5,223.9,468.2,212.7z"/>
					<path d="M138.2,195.1c-2.6,0-4.4,0-6.3,0c6.5-8.1,19.2-10.3,24.7,0.7c2.5,4.9,4.5,10.5,5,15.9c1.1,12.2-2.2,23.8-7.9,34.6
						c-1.6,3.1-4.4,6-7.4,8c-6.7,4.5-14,2.5-17.5-4.9c-4.7-10.2-6.2-20.8-2.9-31.7C128.4,209.7,131.8,202,138.2,195.1z M130.1,234.1
						c1,3.5,2.1,8.6,4,13.3c1.5,3.7,5,4.8,8.4,2.6c2.3-1.5,4.5-3.7,5.7-6.2c4-7.9,5.9-16.5,7.2-25.3c0.8-6-0.2-11.5-2.1-17.2
						c-1.3-3.8-4.5-3.4-7.1-4.2c-1.2-0.4-3.2,1.2-4.7,2.2c-0.8,0.5-1.4,1.5-1.9,2.4C134.2,211.2,131.6,221.5,130.1,234.1z"/>
				</g>
			</g>
		</g>
	</g>
</g>
</svg>
