<?xml version="1.0" encoding="UTF-8"?>
<svg id="Layer_1" xmlns="http://www.w3.org/2000/svg" version="1.1" viewBox="0 0 800 800">
  <!-- Generator: Adobe Illustrator 29.4.0, SVG Export Plug-In . SVG Version: 2.1.0 Build 152)  -->
  <defs>
    <style>
      .st0 {
        stroke-miterlimit: 10;
      }

      .st0, .st1, .st2 {
        stroke: #000;
      }

      .st1, .st2 {
        fill: none;
        stroke-miterlimit: 133.33;
        stroke-width: 50px;
      }

      .st2 {
        stroke-linecap: round;
      }
    </style>
  </defs>
  <path class="st1" d="M126.47,400.97c17.91-89.53,26.86-134.29,56.44-163.12,5.47-5.33,11.38-10.18,17.68-14.49,34.07-23.35,79.72-23.35,171.02-23.35h56.76c91.3,0,136.95,0,171.03,23.35,6.3,4.32,12.21,9.17,17.68,14.49,29.58,28.83,38.53,73.6,56.44,163.12,25.71,128.53,38.56,192.8,8.97,238.34-5.36,8.25-11.61,15.87-18.64,22.74-38.85,37.95-104.39,37.95-235.47,37.95h-56.76c-131.08,0-196.62,0-235.47-37.95-7.03-6.87-13.29-14.5-18.65-22.74-29.59-45.54-16.74-109.81,8.97-238.34Z"/>
  <circle class="st0" cx="500" cy="300" r="33.33"/>
  <circle class="st0" cx="300" cy="300" r="33.33"/>
  <path class="st2" d="M300,200v-33.33c0-55.23,44.77-100,100-100s100,44.77,100,100v33.33"/>
</svg>