<?xml version="1.0" encoding="UTF-8"?>
<svg id="Layer_1" xmlns="http://www.w3.org/2000/svg" version="1.1" viewBox="0 0 800 800">
  <!-- Generator: Adobe Illustrator 29.4.0, SVG Export Plug-In . SVG Version: 2.1.0 Build 152)  -->
  <path d="M298.72,630.36l15.48-19.63-15.48,19.63ZM400,183.35l-18.01,17.34c4.71,4.9,11.22,7.66,18.01,7.66s13.3-2.77,18.01-7.66l-18.01-17.34ZM501.28,630.36l15.48,19.63-15.48-19.63ZM314.2,610.73c-50.52-39.83-105.77-78.72-149.59-128.07-42.97-48.39-72.94-104.84-72.94-178.09h-50c0,88.85,37.02,156.63,85.56,211.29,47.68,53.69,108.47,96.65,156.02,134.14l30.95-39.27ZM91.67,304.57c0-71.7,40.51-131.82,95.81-157.1,53.72-24.56,125.91-18.05,194.51,53.22l36.03-34.67c-81.4-84.57-175.88-98.5-251.32-64.02-73.87,33.77-125.03,112.17-125.03,202.57h50ZM283.25,650c17.07,13.46,35.4,27.81,53.98,38.67,18.57,10.85,39.76,19.67,62.77,19.67v-50c-10.32,0-22.46-4.02-37.55-12.84-15.08-8.81-30.72-20.94-48.25-34.76l-30.95,39.27ZM516.75,650c47.55-37.49,108.34-80.44,156.02-134.14,48.54-54.66,85.56-122.44,85.56-211.29h-50c0,73.25-29.97,129.7-72.94,178.09-43.83,49.35-99.07,88.24-149.59,128.07l30.95,39.27ZM758.33,304.57c0-90.4-51.16-168.81-125.03-202.57-75.44-34.49-169.92-20.55-251.32,64.02l36.03,34.67c68.6-71.27,140.78-77.77,194.51-53.22,55.3,25.28,95.81,85.4,95.81,157.1h50ZM485.8,610.73c-17.54,13.82-33.18,25.95-48.25,34.76-15.08,8.82-27.23,12.84-37.55,12.84v50c23.01,0,44.2-8.82,62.77-19.67,18.58-10.85,36.9-25.21,53.98-38.67l-30.95-39.27Z"/>
</svg>